<svg version="1" xmlns="http://www.w3.org/2000/svg" width="5198.667" height="5198.667" viewBox="0 0 3899.000000 3899.000000"><path d="M3262 1482.5c-.8 1-1 2.6-.5 4.7.4 1.8 1 11.5 1.2 21.5l.4 18.3h-11l-3.1 10-3.2 10H3203V1577.7l-28.7.6c-15.7.4-40.7.7-55.5.7H3092v20h-14v16h6v211H2991.3l-.6 72.7c-.4 40.1-.7 86.7-.7 103.7 0 28.9-.1 30.8-1.7 30.1-1-.3-24.2-10.5-51.5-22.7l-49.8-22v-200.7l8.3-.3 8.2-.3.3-7.3.3-7.2h-30l.1-19.5c.1-10.7-.1-19.7-.4-20-.4-.5-44-.7-100-.6l-25.8.1v39.9l-20.5.1H2707v-40h-21v40h-21.8l.1-4.3c.1-2.3 0-11.2-.1-19.8l-.2-15.6-4.7-.5c-2.7-.2-7.8-.2-11.5 0l-6.8.4v40l-5.2-.3c-2.9-.2-13.7-.2-24-.1l-18.8.2v14h7.2l-.6 96.7c-.3 53.3-.6 116.3-.6 140v43.3h-23c-19.8 0-23-.2-23-1.5 0-1.1-1.1-1.5-4-1.5h-4v-79h4c3.9 0 4-.1 4-3.5s-.1-3.5-4-3.5h-4v-20.3c0-11.2-.3-29.2-.7-40l-.6-19.7h4.7c4.6 0 4.7-.1 4.4-2.8-.3-2.4-.7-2.7-4.5-3l-4.3-.3V1811h4.5c4.3 0 4.5-.1 4.5-3s-.2-3-4.5-3h-4.6l.3-40 .3-40h4.3c4 0 4.2-.1 4.2-3s-.2-3-4.5-3h-4.6l.3-40 .3-40h4.2c4.1 0 4.3-.1 4.3-3s-.2-3-4.5-3h-4.5v-41.5l.1-41.5h14.9v-3c0-2.8.3-3 3.5-3h3.5v-17l-16.7-.1c-9.3 0-40.5 0-69.5.1l-52.8.1v-10c0-9.4.1-10.1 2-10.1 1.5 0 2-.7 2-2.5v-2.5h-75v2.5c0 1.8.5 2.5 2 2.5 1.9 0 2 .7 2 10v10h-34v17h3.5c3.2 0 3.5.2 3.5 3v3h15v22.8c0 12.6-.3 31.1-.7 41l-.6 18.2h-3.9c-3.8 0-3.8 0-3.8 4v4h8v78h-8v8h8v79h-4c-3.9 0-4 .1-4 3.5s.1 3.5 4 3.5h4v79h-4c-3.9 0-4 .1-4 3.5s.1 3.5 4 3.5h4v79h-4c-3.9 0-4 .1-4 3.5s.1 3.5 4 3.5h4v79h-4c-3.9 0-4 .1-4 3.5s.1 3.5 4 3.5h4v64h-46v-251h-192v183h-31v-570h-24v14.5l-19.8 4.8c-10.8 2.6-20 4.7-20.4 4.7-.5 0-.8-2-.8-4.5v-4.5h-24v7.5c0 6.3-.3 7.6-1.9 8.5-1.5.8-38 10-39.7 10-.2 0-.4-2.5-.4-5.5v-5.5h-23v16.8l-20.5 5.1c-11.2 2.8-20.7 5.1-21 5.1-.3 0-.5-2-.5-4.5v-4.5h-23v14.8l-21 5.1c-11.6 2.8-21.3 5.1-21.5 5.1-.3 0-.5-1.8-.5-4v-4.1l-11.2.3-11.3.3-.3 279.7-.2 279.8H1762.3l-.6-148.7c-.4-81.7-.8-148.7-1-148.9-.1-.1-27.1-.4-60-.6l-59.7-.3V2006h-122v-157h-15v-50h4.5c4.3 0 4.5-.1 4.5-3v-3h-40v-8.5c0-8.4 0-8.5-2.5-8.5s-2.5.1-2.5 8.5v8.5h-12v-41.5c0-40.8 0-41.5-2-41.5s-2 .7-2 41.5v41.5h-16v3c0 2.9.2 3 4.5 3h4.5v50l-40.2.2-40.3.3-.3 59.7-.2 59.8h-78.5l-20.5 76-20.5 76H1163v-184.3c0-101.3-.3-212.9-.7-248l-.6-63.7H1053v-18h3c2.7 0 3-.3 3-3v-3h-15.2c-8.4 0-27.1-.3-41.5-.7l-26.3-.6v3.6c0 3.4.2 3.7 3 3.7h3v386h-50v-128h18v-12H820v-77h-25v-15.7l-17.2-.6c-9.5-.4-22.1-.7-28-.7H739v16h-45v277H548v-205H423v26.2c0 14.5-.3 50.9-.7 81l-.6 54.8H314v104h-76v-56.8c0-31.2-.3-60.4-.7-65l-.6-8.2H135v15.7c0 8.7-.3 33.7-.7 55.5l-.6 39.8H43v79h3813v-75h-62.5c-34.4 0-62.5-.1-62.6-.3-.3-1.5-19.4-125.5-23.3-151.2-1.4-9.4-2.8-18.5-3.1-20.2l-.6-3.3-26.7-.2-26.7-.3-.3-72.8-.2-72.7h7v-13h-26v-28.5c0-24.7-.2-28.5-1.5-28.5s-1.5 3.8-1.5 28.5v28.5h-18v-23.5c0-20.2-.2-23.5-1.5-23.5s-1.5 3.3-1.5 23.6v23.6l-54.5-.8-54.5-.7v14.3h7v295h-123v-132h-70v-325h6v-17h-14v-20h-16v-51h-20v-18.4c0-11.3.4-18.7 1-19.1 1.4-.9 1.3-5.8-.2-7.3-1.7-1.7-5.3-1.5-6.8.3zM2843.6 2397.1c-42.4 7-85.6 59.9-112 136.8-5.6 16.2-26.5 97.5-30.5 118.1-2.2 11.8-4.7 33.1-5.7 49.3-.4 6.8-1 10.9-1.8 11.1-.6.2-5.6 1-11.1 1.9-14.3 2.3-26.4 6-39.2 12.2-25.3 12.1-49.7 33.1-65 56-10 15-31.8 57.1-37.6 72.5-18.8 50.4-14.7 105 10.5 138.4 9.6 12.7 25.4 23.3 40.8 27.3 9.7 2.5 29.1 2.3 40.1-.5 27.8-6.8 55.5-23.7 84.2-51.1 4.2-4.1 7.9-7.2 8-7 .2.2 2.6 5.1 5.5 10.9 12.6 25.7 34.2 43.7 58.2 48.6 7.1 1.4 9.7 1.5 15.8.5 23.1-3.6 55.8-20.7 94.8-49.9l12.2-9 6 9.1c16.5 25.3 41.7 42 72.8 48.3 9.9 2 37.6 2.3 48.9.5 29.8-4.7 63.1-17.7 91.9-35.9 5.5-3.5 10.2-5.9 10.6-5.5.4.4 2.8 4 5.3 7.9 16.4 25.1 45.8 39 75.4 35.5 25.8-3.1 58.3-19.8 81.6-42.1l10.1-9.6 5.7 11.5c12.2 24.8 25.1 36.7 43.9 40.7 26.9 5.7 60.4-9.5 96.5-43.9 4.9-4.7 9-8.5 9.1-8.4 0 .1.7 2.4 1.3 5.2 2.1 8.6 8 18.5 15.4 25.8 17.9 17.7 52.2 25.9 94.7 22.8 53.8-4.1 118.9-24.3 169.3-52.5 13.5-7.6 29.6-18.2 30.3-19.9.2-.7.3-17.3.2-36.9l-.3-35.6-10.7 7.2c-14 9.5-27.9 17-60.5 32.5-14.8 7-30.4 14.9-34.6 17.5-4.3 2.6-8.1 4.5-8.5 4.2-.3-.3.1-11.5.9-24.9 2.4-41.7 1.9-47.2-8.6-82.2-4.2-14.3-6.5-26.5-6.5-35 0-7.1-.6-6.1 14.2-23.4 13.6-15.8 19.3-23.4 23.4-31.7 3.3-6.6 3.6-7.9 3.5-15.4-.1-13.1-4-19.3-15.7-24.6-7.3-3.4-23.1-5.1-32.8-3.6-13.5 2.1-26.8 9.8-36.8 21.4-8.3 9.6-30.8 38.8-58.8 76.3-35.7 48-49 64.1-62.9 76.4l-7.1 6.3-.6-4.1c-.4-2.3-1-4.4-1.4-4.6-.5-.3-2.6 1.9-4.7 4.7-8.1 11.1-24.1 29.7-34.2 39.8-19.4 19.3-37.3 30.8-49.5 31.7-13.8 1.2-17.6-5.7-17.6-31.9 0-16.4 1.5-26.7 9.6-64.8 13.3-62.8 15.9-79.3 15.2-98.7-.6-17-3.4-23.1-12.3-26.8-1.1-.5-10.1-1.1-20-1.5-21.8-.7-23.8-1.4-31-11.5-8.7-12.2-15-14.7-31.9-12.6-11.7 1.4-20.3 3.6-31.2 8.1-31.9 13-64.8 41.6-87.8 76.5-22.4 33.8-40.9 77.3-47.2 110.9l-1.8 9.9-10.1 6.6c-19 12.3-48.8 26.6-67 31.9-16.8 5-37.3 6.6-47.1 3.7-2.8-.8-7.1-2.9-9.8-4.6-7.6-5.1-20.6-22.4-17.4-23.3 30.5-9.1 53.2-20.1 74.6-36.1 26.8-20 48.5-49.2 58.8-79 2.6-7.4 2.8-9.2 2.9-24 0-14-.3-16.9-2.3-23.5-9.9-31.7-36-52.1-71.6-56.1-20.2-2.2-39.1 1.2-58.1 10.6-38.5 19.1-63.6 55.5-82 119-7.6 26.1-8.7 32.8-9.2 53l-.5 18.1-12.2 9.1c-38.4 28.7-62.6 39.6-75.9 33.9-15.8-6.7-20.3-43.7-10.6-88.4 3.5-15.9 10.3-32.9 34.7-86.7 8.2-18.2 17.9-40.4 21.5-49.5 7.8-19.8 40.2-114.8 45.7-134.2 17.8-62.7 18.6-126.3 2-160.2-11.4-23.3-30.4-33.6-54.4-29.5zm.5 75.9c5.7 3.1 8.4 17.7 7.4 39.5-2.2 50-8.3 77.3-34.7 157.5-9.9 30-31.3 86.1-40 104.5l-2.3 5-.3-8.5c-.8-21.5 2.7-83.7 6.8-120 5.2-45.5 8.1-61.6 19.5-107 8.4-33.4 12.5-46.1 18.4-55.9 7.8-13.1 17.7-19 25.2-15.1zM2698 2812.6c.6 26.9 1.5 55.6 2 63.7l1.1 14.8-5 9.6c-11.7 22.2-25.4 38.4-38.1 45.3-6.4 3.4-6.8 3.5-18 3.5-11.1 0-11.8-.1-18.3-3.3-12.2-6-15.3-12.7-14.4-31.7.8-17.7 6-36.6 19.4-71 12.7-32.7 25.3-51 46.2-66.9 8.2-6.3 22.4-14.6 23.4-13.6.4.3 1.2 22.7 1.7 49.6zm621-48.5c0 .6-5 22.7-11 49.2-6.1 26.5-12.2 53.8-13.6 60.7-7.1 35.4-18.7 61.5-34.3 77-6.9 6.9-11.8 9.3-19.8 9.8-14.9 1-23.9-10-26.6-32.6-.8-6.9-.8-9.8 0-11.1.8-1.3.8-2.2.1-2.9-2.9-2.9 4-35 11.8-54.9 18.2-46.7 42.8-78.5 70.2-91.1 9.5-4.3 23.2-6.8 23.2-4.1zm-273.9 1.4c7.4 3.9 12.3 15.4 12.4 29 0 8.3-.3 9.5-3.4 15.5-7.1 13.9-21.2 30.1-33.9 39.3-14.7 10.6-34.2 18.7-44.9 18.7h-4.3l.6-10.3c.4-5.6 1.7-14.3 2.9-19.2 2.8-11.1 12.6-37.9 16.9-46 3.8-7.4 15.3-19.1 22.2-22.8 10.2-5.4 25.2-7.4 31.5-4.2zm545.4 88c3.3 11.3 3.6 15.5 2.4 28.9-.8 9.9-.8 15.7.1 25 4.3 41.7-8.9 64.7-37.9 66.4-16.3.9-24-2.8-42.1-20.3-5.9-5.7-11.8-10.5-13-10.7-1.9-.2 4.9-7.8 42.6-47.5 24.7-26 45.2-47.2 45.6-47.3.4 0 1.4 2.5 2.3 5.5zM2028.5 2420c-32.6 5.1-61.6 28.9-87.7 72-34 56.3-63.3 151.4-82.3 267-1.4 8.5-2.7 16.5-3 17.7-.4 1.9-2.4.3-14.8-12.1-20.5-20.6-39.6-34-63.9-44.8-21.9-9.8-38.2-14-61.5-16-30.4-2.5-59.7 2.9-84.7 15.6-14.3 7.3-25.1 15.2-36.6 26.6-24.8 24.8-40.1 57.7-45.5 98-5.9 43.6-.3 88.3 15 119.5 6.7 13.7 11.9 21.1 22.4 31.5 14.3 14.2 27.4 21.7 45.5 25.7 8.7 1.9 32.5 2.2 41.3.5 19.8-4 39.6-14.1 56.5-28.8 35.9-31.4 59.2-90.8 56.3-143.9-1.5-27.5-6.5-49.8-15.7-69.7-2.9-6.4-3-7-1.5-8.5 1.6-1.6 2.5-1.2 13.4 6.2 20.2 13.8 30.6 22 45.9 36.3 8.2 7.7 16 15.1 17.3 16.5l2.3 2.5-2.6 21.9c-2.6 21.4-11.3 115.5-13.7 146.8-1.5 20.3-1.5 59.8 0 78 6.1 72.3 25.2 117.7 56.2 133.5 9.4 4.8 16.3 6.4 28.4 6.4 12.9 0 19.1-1.3 30-6.4 20.2-9.4 35.8-26.8 49.4-55.1 15.1-31.4 26.4-78.6 28.7-120.4 1.9-32.7-10.6-79-34.1-126.2l-8-16.2 5-.5c2.8-.3 10.6-1 17.5-1.6 25.2-2.3 62.1-10.3 82.5-18 15.9-5.9 29.5-12.9 29.5-15 0-2.7 5.9-68.8 6.5-73.3l.5-3.7-9 7.3c-17 13.8-38.8 25.1-64.1 33.2-15.9 5-30.8 7.5-48.4 8.2-13.3.5-15.9.3-22.5-1.6-4.1-1.2-8.8-2.1-10.5-2.1-2.9 0-11.8 2-15.8 3.6-3.8 1.4-.4-5.1 9.3-18.1 56.6-75.8 110-174.4 133.4-246.5 10.5-32.3 14-50.2 13.9-72.5 0-13.1-.4-17.4-2.1-23.6-8.3-30.5-31.9-49-64-50.4-4.8-.2-11.4 0-14.7.5zm15.5 64.2c3.6 1.9 5.1 3.5 7.5 8.2 2.9 5.8 3 6.4 3 20v14.1l-4.6 13.5c-13.4 38.9-33.1 78.1-77 153-8.6 14.6-20 34.7-25.5 44.7-5.4 10-10 18-10.1 17.9-.6-.6 5.9-53 8.3-67.1 7.8-46.5 20.8-92.4 39.9-141.5 12.1-31 23.6-56 27.5-59.5 6.1-5.5 23.1-7.2 31-3.3zm-348.7 283.4c26 8.9 35.4 61.4 21.5 120.9-6.1 26.5-17.4 49.1-30.7 61.8-8.5 8.2-13.3 10-23.7 9.5-20.3-1.1-35.3-15.6-41-39.8-2.2-9.8-3-37.3-1.4-51.2 5.4-47.3 28.7-91.1 53.8-100.9 5.9-2.3 15.3-2.4 21.5-.3zm225 98.6c4.4 4.4 20.5 35.9 23.2 45.3 4.5 15.6 8.5 42.5 10.7 73 1.7 22.8 1.7 90.9 0 104-4.7 37.2-13.9 55.8-28.8 58.1-9.7 1.4-14.3-7.1-17.9-32.8-3.2-23.8-4-41.5-4-91.3 0-49.1.1-50.8 3.8-94 3.8-45.8 5-55.8 7.3-61.3 1.5-3.8 2.7-4 5.7-1zM464.6 2439.1c-36.6 3.5-76.1 18.3-110.8 41.6-18.2 12.2-33.7 25.1-52.4 43.8-40.3 40.2-68.5 80.2-96.8 137.6-28.8 58.2-46.6 116-53.1 172.9-2.4 20.3-1.7 59.4 1.4 76.3 4.7 26.3 10.8 45.2 21.6 67.2 16.2 33 37.4 57.9 65.4 76.7 34.4 23 69.2 32.2 116.1 30.4 75.1-2.9 130.7-18.3 186.5-51.7 26.9-16.1 38.9-25.4 73-56.7l25-23 .8 8.1c2.8 30.6 10.7 45.4 28.8 54 28.2 13.4 69.6 5.9 121-21.9 17.9-9.7 41.5-25.9 54-37.2l4.9-4.4.1-12.1v-12.2l3.3 10.5c14.5 46.7 36.5 73.5 66.6 81.6 9.6 2.5 26.1 2.4 37.2-.4 19.1-4.7 46.8-17.2 83.3-37.5l19-10.6 4 7.8c12.5 24.1 34.3 39.5 60.8 43.1 22.9 3.2 49.1-6.5 75.6-27.8 3.5-2.9 6.6-5 6.9-4.8.2.3-1.1 8.9-2.9 19.2l-3.3 18.6-5.6 5.2c-23.4 21.6-60.5 61-77.5 82.1-10.1 12.5-21.8 30.5-35.1 53.6-16.8 29.4-20.3 37.1-25.1 55.6-2.4 9.6-2.7 12.5-2.7 26.3.1 12.6.5 17 2.2 23.3 5.2 19 17.1 33.7 34.2 42.1 22.2 10.9 52.1 13.4 77 6.6 10-2.8 26-10.6 33.7-16.4 18-13.6 36.1-40.2 45.9-67.4 9.8-26.9 13.4-47 21.9-121.2 4.5-39.1 6.5-48.9 12-57.2 1.6-2.4 8.7-7.9 22.1-17 42.4-28.7 88.7-69.2 104.1-91.1l6.1-8.7-1.3-5.8c-.7-3.1-4.1-18.8-7.5-34.7-3.4-16-6.6-29.4-7-29.8-.4-.4-4.9 5.1-10.1 12.4-26.5 37.2-59.7 74.1-81.3 90.3-7.8 5.8-24.7 16.8-25.2 16.4-.8-.9 13.7-88.8 31.5-190.6 7.8-44.2 14.1-82.2 14.1-84.6 0-5.8-3.3-10.5-9.5-13.6-4.3-2.1-6.3-2.5-14.5-2.4-16.9.2-32.4 6.9-45.1 19.6-11.8 11.7-12 12.3-27 82.3-7.2 33.5-13.6 64.4-14.4 68.5-7.3 41.1-25.5 76.8-43.6 85.9-13.9 6.9-26.9 2.3-33.2-11.8-4.3-9.7-5.7-27.4-3.7-45.6 1.2-10.8 24.1-131 27.6-144.7 1.3-5.3 3.8-13.4 5.5-18 3.6-9.7 4.8-20.6 2.9-26.2-6.9-20.9-43.7-20.1-65.2 1.4-5.8 5.8-7.6 8.5-13.6 21.1-12.8 26.4-19 43.9-23.8 66.3-3.4 16.1-14.1 81.3-15.6 95l-1.2 10.9-11 7.2c-21.8 14.3-46.1 26.8-64.6 33.1-7.5 2.6-9.8 2.9-20 2.8-9.5 0-12.5-.4-17.1-2.2-15.3-6.1-23.8-18.2-27.5-39.5-1.4-7.9-1.6-14.4-1-45.2.6-36.3 2.9-82.6 4.2-84.6.3-.6 5.4-7.2 11.3-14.8 5.8-7.5 13.8-18 17.6-23.3l7-9.7 64-.1c60.2 0 64.2-.2 68-1.9 5-2.3 9.9-7.4 12-12.4 4.8-11.6 1.7-32.5-5.4-36.2-2.1-1-14.3-1.7-50.7-2.9-26.4-.9-48.8-1.6-49.8-1.6-1.4 0-1.3-.6 1.2-4.3 6.4-9.4 22.7-37.6 29.2-50.6 18.2-36.4 25.4-61.4 25.3-88.1-.1-23.3-5.3-45.4-14.6-62-5.8-10.3-18.1-22.7-26.7-26.8-24.2-11.8-49.7-2.5-73.1 26.6-31.5 39-57.5 103.8-77.1 191.7l-1.3 6-34.5.1c-34.3 0-42 .6-53.6 3.9-2.8.8-6.3 2.4-7.7 3.6-2.4 1.8-2.7 2.8-2.7 7.8 0 7 2.3 15.2 5 17.6 3 2.8 2.4 3.4-2.2 2.3-10.1-2.3-34.3 2.2-46.8 8.8-8.1 4.2-15.4 10.3-17.7 14.7-.9 1.7-4.6 15.1-8.3 29.7-3.8 14.6-11 40.9-16.1 58.5-5.1 17.6-10.2 35.8-11.4 40.4l-2.1 8.4-13 8.1c-19.9 12.5-38.7 25.5-78.7 54.5-61 44.2-87.7 59.4-127.3 72.6-30.7 10.3-67.8 14.1-96.3 9.9-59.7-8.8-93-52.9-95.8-126.9-3.2-86.9 43.5-216.9 106.2-295.5 33.7-42.2 72.6-68.8 108.4-74 10.3-1.5 30.3-.8 38.6 1.4 18.4 4.9 33.7 17 41.4 32.6 7.6 15.5 10.1 37.3 6.6 58.6-5.4 33.7-26.9 66.3-56.5 85.8-27.7 18.3-59.9 24.2-85.3 15.7-7.8-2.7-10.6-3.2-14.2-2.6-9 1.3-13.7 8.8-15.5 24.6-1.3 11-.5 27.7 1.6 33.5 2.7 7.7 12.2 14.5 24.9 17.8 10.4 2.8 30.1 4 42.8 2.7 78.9-8 160.9-93.1 174.8-181.6 3-18.6 1.2-47.7-4.2-67.5-2.8-10.6-13.6-32-21-42-28.1-38.1-74.5-57-127.3-51.9zm522.5 75.5c4.2 3.9 5.8 8 6.5 16.7 1.1 12.6-2.9 28-14.1 54.7-8.2 19.5-36.8 74-43.8 83.4-1.2 1.6-2.2 1.7-11 1.1-7.7-.6-9.7-1.1-9.7-2.3 0-3.2 14.5-61.6 19.5-78.7 7.7-26 11.8-37.2 19.5-53 10.2-20.8 15.2-25.9 24.8-25.2 4.1.3 5.9 1 8.3 3.3zM789 2710c12.4 1.7 33.8 5.5 52.6 9.5 1.9.4 2 .9 1.3 6.4-6 43.8-6.9 102.4-2.2 145.1 2.7 24.6 4.2 20.5-13.7 36.1-44.6 38.5-67.6 52.9-84.7 52.9-13 0-17.4-7.9-17.4-31 0-12.7 1-20.8 4.6-35 1.3-5.2 4.2-19 6.5-30.6 4.6-23.8 5.4-27.1 15.1-58.6 9.3-30.3 19.8-71.5 20.5-80.9.6-6.3.3-8.2-1.4-12.3l-2.2-4.7 2.8.5c1.5.3 9.7 1.5 18.2 2.6zm412 400c0 3.5-5.9 50.5-7.1 56.2-1.6 7.9-11.4 40.1-15.8 52.1-13 34.9-25.6 46.9-47.9 45.5-5.7-.4-6.8-.8-9.3-3.6-5.6-6.2-4.9-15.4 2.8-35.6 10.5-27.9 29.9-63.7 46.3-85.4 8.1-10.8 27.7-31.2 30-31.2.6 0 1 .9 1 2zM2489 2459.7c-79.3 3.4-140.1 24.1-158 53.9-3.3 5.5-3.5 6.4-3.8 16.3-.3 9.5 1.2 35.8 2.1 36.7.1.2 8.6-2.8 18.8-6.7 30.6-11.6 44.3-15.2 69.5-18.3 6.8-.8 10.4-.9 10.4-.3 0 .6-2 7.3-4.5 14.9-2.5 7.6-7.9 26.3-11.9 41.5-4.1 15.3-11.5 42-16.4 59.3-19.7 69.1-26.8 96.6-38.2 147.9-3.3 15.1-7.6 34-9.5 42-6 25-30.8 121.9-31.5 123.1-.4.6-6.1 1.8-12.6 2.5-23 2.7-43.5 7.1-58.9 12.5-19.4 6.8-23.6 9.9-25.4 18.8-1.7 8.8-7.5 17-17.6 24.9-2.2 1.7-3.6 3.5-3.2 4 .5.4 61.7.9 136 1.1l135.2.4 6.1-4c18.5-12 22.3-24.8 10.6-35.4-10.9-9.9-37.1-17.8-70.4-21.3l-5.6-.6 10.4-41.2c5.8-22.7 15.6-61.5 21.9-86.2 6.2-24.8 21.8-90.2 34.5-145.5s26.7-115.3 31.2-133.3l8.1-32.8 13.6.7c22.9 1.1 45.2-1.7 57.8-7.2 7.9-3.4 12-7 15-13.2 2.6-5.2 2.8-6.7 2.8-17.2 0-14-2-19.2-9.1-24.1-15.7-10.8-54.1-15.5-107.4-13.2z"/><path d="M754.5 2557c-13.5 2.1-25.7 8.3-34.6 17.7-10.2 10.7-15.3 22.9-15.3 36.8 0 24.7 12.4 41.1 35.4 47.2 9 2.3 31.1 2.3 39.9-.1 21.4-5.8 37-21.2 41.7-41.2 2.2-9.7 1.5-25.8-1.5-33.7-2.8-7.1-11-16.2-17.9-20-10.7-5.8-33.1-8.9-47.7-6.7z"/></svg>